<svg id="Calque_1" data-name="Calque 1" xmlns="http://www.w3.org/2000/svg" xmlns:xlink="http://www.w3.org/1999/xlink" viewBox="0 0 221 241"><defs><style>.cls-1{fill:url(#Dégradé_sans_nom_32);}</style><linearGradient id="Dégradé_sans_nom_32" x1="191.71" y1="44.77" x2="29.29" y2="196.23" gradientUnits="userSpaceOnUse"><stop offset="0" stop-color="#05e2c9"/><stop offset="1" stop-color="#22aab3"/></linearGradient></defs><path class="cls-1" d="M210,173l3.42-97.94a16.37,16.37,0,0,0-7.69-14.46L122.61,8.67a16.38,16.38,0,0,0-16.37-.57L19.7,54.1A16.41,16.41,0,0,0,11,68L7.6,165.93a16.37,16.37,0,0,0,7.69,14.46l83.1,51.94a16.38,16.38,0,0,0,16.37.57l86.54-46A16.41,16.41,0,0,0,210,173Z"/></svg>